<svg id="svg" version="1.1" xmlns="http://www.w3.org/2000/svg" xmlns:xlink="http://www.w3.org/1999/xlink" width="400" height="400" viewBox="0, 0, 400,400"><g id="svgg"><path id="path0" d="M133.200 114.074 C 129.547 114.510,124.366 115.514,122.200 116.205 C 121.320 116.485,119.340 117.105,117.800 117.581 C 112.264 119.294,104.065 123.882,98.200 128.548 C 95.415 130.763,90.000 136.091,90.000 136.616 C 90.000 136.855,89.435 137.579,88.744 138.225 C 86.726 140.114,81.915 147.864,80.069 152.200 C 79.133 154.400,78.194 156.513,77.983 156.895 C 77.772 157.277,77.600 157.941,77.600 158.371 C 77.600 158.801,77.439 159.252,77.242 159.374 C 77.045 159.495,76.787 160.271,76.668 161.097 C 76.549 161.924,76.250 163.500,76.004 164.600 C 73.907 173.977,73.906 183.498,76.002 192.400 C 76.235 193.390,76.534 194.969,76.666 195.909 C 76.798 196.849,77.062 197.715,77.253 197.833 C 77.444 197.951,77.600 198.399,77.600 198.829 C 77.600 199.259,77.774 199.923,77.987 200.305 C 78.199 200.687,78.935 202.260,79.620 203.800 C 82.037 209.225,82.585 210.235,85.156 214.000 C 89.754 220.732,90.000 221.111,90.000 221.462 C 90.000 221.653,90.627 222.527,91.392 223.404 C 92.158 224.282,92.788 225.122,92.792 225.271 C 92.797 225.421,93.034 225.781,93.319 226.071 C 93.604 226.362,94.418 227.410,95.128 228.400 C 96.645 230.517,100.646 235.422,104.657 240.081 C 107.722 243.642,119.791 255.596,123.936 259.177 C 125.322 260.375,126.848 261.700,127.328 262.122 C 127.808 262.544,129.010 263.544,130.000 264.345 C 130.990 265.145,131.890 265.904,132.000 266.030 C 132.158 266.212,139.010 271.756,142.003 274.123 C 145.823 277.145,147.993 278.768,148.765 279.181 C 149.277 279.455,150.170 280.098,150.748 280.609 C 151.327 281.120,152.970 282.355,154.400 283.353 C 159.766 287.100,166.147 291.425,167.352 292.133 C 168.038 292.535,169.264 293.390,170.077 294.033 C 170.889 294.675,171.744 295.200,171.977 295.200 C 172.209 295.200,172.400 295.336,172.400 295.502 C 172.400 295.669,172.932 296.040,173.581 296.328 C 174.231 296.615,176.388 297.919,178.373 299.225 C 180.359 300.531,182.084 301.600,182.206 301.600 C 182.329 301.600,184.087 302.654,186.114 303.943 C 188.141 305.232,190.520 306.670,191.400 307.140 C 196.729 309.984,196.992 310.208,197.125 311.999 C 197.260 313.814,197.251 313.812,199.845 312.768 C 200.948 312.323,201.227 312.365,202.306 313.133 C 203.926 314.286,203.938 314.280,204.078 312.158 C 204.189 310.476,204.339 310.238,205.800 309.413 C 206.680 308.916,209.001 307.585,210.957 306.455 C 212.914 305.325,214.647 304.400,214.808 304.400 C 214.970 304.400,215.338 304.115,215.627 303.767 C 215.916 303.419,217.153 302.608,218.376 301.965 C 219.599 301.322,222.274 299.716,224.320 298.398 C 226.366 297.079,228.211 296.000,228.420 296.000 C 228.629 296.000,228.800 295.820,228.800 295.600 C 228.800 295.380,229.048 295.200,229.351 295.200 C 229.654 295.200,230.133 294.922,230.415 294.581 C 230.698 294.241,232.025 293.324,233.364 292.543 C 234.704 291.763,236.700 290.439,237.800 289.601 C 238.900 288.763,240.362 287.746,241.049 287.339 C 241.737 286.933,244.038 285.340,246.164 283.800 C 248.289 282.260,250.607 280.589,251.314 280.087 C 252.021 279.584,252.870 278.952,253.200 278.681 C 253.530 278.410,254.430 277.744,255.200 277.200 C 255.970 276.656,256.960 275.902,257.400 275.525 C 257.840 275.147,259.213 274.064,260.451 273.119 C 265.431 269.317,272.107 263.790,274.243 261.700 C 274.750 261.205,275.340 260.800,275.556 260.800 C 275.975 260.800,295.109 241.824,297.800 238.741 C 298.680 237.732,300.300 235.788,301.400 234.420 C 302.500 233.052,304.030 231.152,304.800 230.198 C 306.822 227.693,309.807 223.599,310.663 222.158 C 311.068 221.475,313.015 218.508,314.988 215.565 C 318.288 210.644,321.537 204.652,322.778 201.200 C 323.054 200.430,323.431 199.440,323.615 199.000 C 326.031 193.210,327.647 179.811,326.772 172.821 C 325.742 164.601,323.852 157.742,321.050 152.059 C 320.252 150.441,319.600 148.898,319.600 148.630 C 319.600 148.362,318.700 146.836,317.600 145.239 C 316.500 143.642,315.600 142.253,315.600 142.151 C 315.600 142.049,315.421 141.749,315.203 141.483 C 314.984 141.217,313.478 139.380,311.857 137.400 C 308.788 133.653,305.476 130.359,302.400 127.992 C 301.410 127.230,300.251 126.291,299.825 125.904 C 299.398 125.517,298.875 125.200,298.662 125.200 C 298.450 125.200,297.678 124.744,296.947 124.187 C 293.443 121.514,281.899 116.572,277.305 115.778 C 276.477 115.635,274.900 115.282,273.800 114.993 C 260.154 111.411,239.597 115.681,226.002 124.921 C 215.514 132.050,203.859 146.674,201.773 155.321 C 201.264 157.434,199.967 156.589,198.718 153.333 C 198.113 151.756,197.046 149.506,196.347 148.333 C 195.649 147.160,194.572 145.251,193.955 144.091 C 193.338 142.931,192.197 141.311,191.420 140.491 C 190.643 139.671,190.005 138.849,190.003 138.664 C 189.998 138.094,180.806 128.911,179.054 127.726 C 178.144 127.110,177.109 126.290,176.753 125.903 C 176.397 125.517,175.964 125.200,175.791 125.200 C 175.617 125.200,174.919 124.780,174.238 124.266 C 170.964 121.796,163.662 118.444,158.067 116.843 C 147.802 113.906,140.977 113.146,133.200 114.074 " stroke="none" fill="#ecc3c3" fill-rule="evenodd"></path><path id="path1" d="M185.890 0.573 C 185.081 1.003,183.242 1.178,179.090 1.220 C 175.961 1.252,173.220 1.423,173.000 1.599 C 172.780 1.776,171.610 2.025,170.400 2.151 C 164.813 2.736,163.775 2.898,163.420 3.237 C 163.211 3.437,162.401 3.604,161.620 3.609 C 160.830 3.614,159.756 3.965,159.200 4.400 C 158.422 5.009,157.561 5.184,155.324 5.191 C 153.742 5.196,152.336 5.380,152.200 5.600 C 152.064 5.820,151.423 6.000,150.776 6.000 C 150.129 6.000,149.600 6.180,149.600 6.400 C 149.600 6.620,148.981 6.800,148.224 6.800 C 147.467 6.800,146.736 6.980,146.600 7.200 C 146.464 7.420,145.834 7.600,145.200 7.600 C 144.566 7.600,143.936 7.780,143.800 8.000 C 143.664 8.220,143.105 8.400,142.557 8.400 C 142.009 8.400,140.826 8.755,139.926 9.190 C 139.027 9.624,138.149 9.892,137.976 9.785 C 137.802 9.678,137.151 9.795,136.530 10.045 C 135.908 10.295,135.040 10.635,134.600 10.800 C 134.160 10.965,133.260 11.329,132.600 11.609 C 131.940 11.888,130.872 12.183,130.226 12.263 C 129.581 12.344,128.771 12.632,128.426 12.905 C 127.201 13.874,125.997 14.400,125.005 14.400 C 124.452 14.400,124.000 14.580,124.000 14.800 C 124.000 15.020,123.655 15.200,123.233 15.200 C 122.812 15.200,122.407 15.369,122.333 15.575 C 122.260 15.782,121.750 16.015,121.200 16.094 C 119.879 16.284,117.516 17.446,116.471 18.420 C 116.010 18.849,115.176 19.200,114.617 19.200 C 114.058 19.200,113.600 19.380,113.600 19.600 C 113.600 19.820,113.150 20.000,112.600 20.000 C 112.050 20.000,111.600 20.180,111.600 20.400 C 111.600 20.620,111.324 20.800,110.986 20.800 C 110.086 20.800,108.400 22.004,108.400 22.646 C 108.400 22.951,108.040 23.200,107.600 23.200 C 107.160 23.200,106.800 23.380,106.800 23.600 C 106.800 23.820,106.265 24.000,105.612 24.000 C 104.304 24.000,101.780 25.270,100.767 26.438 C 100.411 26.849,100.002 27.069,99.859 26.926 C 99.717 26.783,99.600 26.877,99.600 27.133 C 99.600 27.390,99.253 27.600,98.829 27.600 C 98.404 27.600,97.742 27.915,97.357 28.300 C 96.972 28.685,96.554 28.977,96.429 28.948 C 95.888 28.825,94.438 29.608,93.940 30.292 C 93.643 30.701,92.410 31.546,91.200 32.170 C 89.990 32.794,88.503 33.821,87.897 34.452 C 87.290 35.083,86.559 35.600,86.272 35.600 C 85.985 35.600,85.364 35.960,84.892 36.400 C 84.420 36.840,83.846 37.200,83.617 37.200 C 83.388 37.200,83.200 37.338,83.200 37.506 C 83.200 37.674,82.480 38.256,81.600 38.800 C 80.720 39.344,80.000 39.926,80.000 40.094 C 80.000 40.262,79.818 40.400,79.596 40.400 C 79.374 40.400,78.628 40.940,77.937 41.600 C 77.246 42.260,76.523 42.800,76.330 42.800 C 76.137 42.800,75.398 43.326,74.689 43.970 C 72.886 45.606,71.810 46.505,70.837 47.188 C 70.377 47.512,70.000 48.007,70.000 48.288 C 70.000 48.570,69.717 48.800,69.371 48.800 C 69.026 48.800,67.595 49.925,66.192 51.300 C 64.788 52.675,63.136 54.278,62.520 54.863 C 61.904 55.448,61.016 56.348,60.548 56.863 C 60.079 57.378,59.048 58.340,58.256 59.000 C 57.465 59.660,56.813 60.425,56.809 60.700 C 56.804 60.975,56.665 61.200,56.500 61.200 C 56.183 61.200,52.800 64.191,52.800 64.471 C 52.800 64.561,51.540 65.969,50.000 67.600 C 48.460 69.231,47.200 70.715,47.200 70.896 C 47.200 71.078,46.678 71.737,46.039 72.361 C 45.401 72.985,44.232 74.416,43.441 75.541 C 41.992 77.603,41.020 78.847,40.100 79.816 C 39.825 80.106,39.600 80.457,39.600 80.597 C 39.600 80.737,39.101 81.272,38.491 81.785 C 37.880 82.299,37.127 83.367,36.816 84.159 C 36.505 84.952,36.104 85.600,35.925 85.600 C 35.746 85.600,35.600 85.877,35.600 86.216 C 35.600 86.555,34.880 87.517,34.000 88.354 C 33.120 89.191,32.400 90.086,32.400 90.343 C 32.400 91.088,31.556 92.466,29.793 94.600 C 29.247 95.260,28.801 95.989,28.800 96.220 C 28.800 96.451,28.586 96.854,28.325 97.115 C 28.064 97.376,27.790 97.989,27.715 98.477 C 27.641 98.966,27.359 99.505,27.090 99.677 C 26.820 99.848,26.737 99.991,26.903 99.994 C 27.070 99.997,26.665 100.567,26.003 101.259 C 25.342 101.952,24.800 102.762,24.800 103.059 C 24.800 103.357,24.620 103.600,24.400 103.600 C 24.180 103.600,24.000 104.140,24.000 104.800 C 24.000 105.460,23.820 106.000,23.600 106.000 C 23.380 106.000,23.200 106.360,23.200 106.800 C 23.200 107.240,23.020 107.600,22.800 107.600 C 22.580 107.600,22.400 107.990,22.400 108.467 C 22.400 108.943,22.281 109.214,22.135 109.069 C 21.712 108.645,20.000 111.458,20.000 112.579 C 20.000 113.140,19.820 113.600,19.600 113.600 C 19.380 113.600,19.200 113.960,19.200 114.400 C 19.200 114.840,19.020 115.200,18.800 115.200 C 18.580 115.200,18.400 115.545,18.400 115.967 C 18.400 116.388,18.265 116.793,18.100 116.867 C 17.541 117.115,16.000 120.470,16.000 121.438 C 16.000 121.967,15.820 122.400,15.600 122.400 C 15.380 122.400,15.200 122.760,15.200 123.200 C 15.200 123.640,15.020 124.000,14.800 124.000 C 14.580 124.000,14.400 124.349,14.400 124.776 C 14.400 125.203,14.220 125.664,14.000 125.800 C 13.780 125.936,13.600 126.422,13.600 126.880 C 13.600 127.337,13.342 127.912,13.027 128.156 C 12.712 128.400,12.397 129.230,12.327 130.000 C 12.257 130.770,12.061 131.503,11.891 131.629 C 11.720 131.756,11.506 132.206,11.414 132.629 C 11.321 133.053,10.907 134.303,10.492 135.406 C 10.077 136.510,9.819 137.656,9.918 137.953 C 10.017 138.250,9.940 138.607,9.747 138.746 C 9.268 139.093,8.400 141.659,8.400 142.728 C 8.400 143.208,8.220 143.600,8.000 143.600 C 7.780 143.600,7.600 144.230,7.600 145.000 C 7.600 145.770,7.420 146.400,7.200 146.400 C 6.980 146.400,6.800 147.030,6.800 147.800 C 6.800 148.570,6.620 149.200,6.400 149.200 C 6.180 149.200,6.000 149.830,6.000 150.600 C 6.000 151.370,5.820 152.000,5.600 152.000 C 5.369 152.000,5.200 153.272,5.200 155.017 C 5.200 157.371,5.042 158.204,4.479 158.808 C 4.067 159.250,3.715 160.314,3.659 161.291 C 3.604 162.231,3.389 163.060,3.180 163.133 C 2.971 163.207,2.800 164.141,2.800 165.210 C 2.800 166.278,2.620 167.264,2.400 167.400 C 2.180 167.536,2.000 168.706,2.000 170.000 C 2.000 171.294,1.820 172.464,1.600 172.600 C 1.363 172.747,1.200 175.244,1.200 178.744 C 1.200 182.927,1.055 184.785,0.700 185.140 C -0.026 185.866,-0.026 214.858,0.700 215.100 C 1.070 215.223,1.200 216.811,1.200 221.210 C 1.200 224.740,1.362 227.253,1.600 227.400 C 1.820 227.536,2.000 228.796,2.000 230.200 C 2.000 231.604,2.180 232.864,2.400 233.000 C 2.620 233.136,2.800 234.126,2.800 235.200 C 2.800 236.274,2.980 237.264,3.200 237.400 C 3.420 237.536,3.600 238.355,3.600 239.220 C 3.600 240.360,3.820 240.931,4.400 241.293 C 5.088 241.723,5.200 242.226,5.200 244.896 C 5.200 246.699,5.368 248.000,5.600 248.000 C 5.820 248.000,6.000 248.619,6.000 249.376 C 6.000 250.133,6.180 250.864,6.400 251.000 C 6.620 251.136,6.800 251.766,6.800 252.400 C 6.800 253.034,6.980 253.664,7.200 253.800 C 7.420 253.936,7.600 254.577,7.600 255.224 C 7.600 255.871,7.780 256.400,8.000 256.400 C 8.220 256.400,8.400 256.943,8.400 257.606 C 8.400 259.088,9.275 262.000,9.721 262.000 C 9.900 262.000,9.956 262.147,9.845 262.326 C 9.631 262.673,10.464 265.397,10.926 265.859 C 11.077 266.010,11.200 266.559,11.200 267.079 C 11.200 267.599,11.425 268.112,11.700 268.219 C 11.975 268.326,12.233 269.058,12.274 269.847 C 12.315 270.635,12.630 271.591,12.974 271.972 C 13.318 272.352,13.600 273.054,13.600 273.531 C 13.600 274.009,13.780 274.400,14.000 274.400 C 14.220 274.400,14.400 274.760,14.400 275.200 C 14.400 275.640,14.580 276.000,14.800 276.000 C 15.020 276.000,15.200 276.439,15.200 276.976 C 15.200 277.513,15.380 278.064,15.600 278.200 C 15.820 278.336,16.000 278.862,16.000 279.370 C 16.000 279.877,16.360 280.750,16.800 281.309 C 17.240 281.869,17.600 282.523,17.600 282.763 C 17.600 283.003,17.780 283.200,18.000 283.200 C 18.220 283.200,18.400 283.560,18.400 284.000 C 18.400 284.440,18.580 284.800,18.800 284.800 C 19.020 284.800,19.200 285.250,19.200 285.800 C 19.200 286.350,19.380 286.800,19.600 286.800 C 19.820 286.800,20.000 287.132,20.000 287.539 C 20.000 288.521,21.155 290.800,21.653 290.800 C 21.870 290.800,21.956 290.947,21.845 291.127 C 21.734 291.307,21.993 291.707,22.421 292.015 C 22.850 292.324,23.200 292.897,23.200 293.288 C 23.200 293.680,23.380 294.000,23.600 294.000 C 23.820 294.000,24.000 294.439,24.000 294.976 C 24.000 295.513,24.180 296.064,24.400 296.200 C 24.620 296.336,24.800 296.769,24.800 297.162 C 24.800 297.555,25.183 298.219,25.651 298.638 C 26.119 299.057,27.091 300.660,27.812 302.200 C 28.532 303.740,29.679 305.630,30.360 306.400 C 31.041 307.170,31.599 308.025,31.599 308.300 C 31.600 308.575,31.780 308.800,32.000 308.800 C 32.220 308.800,32.400 309.076,32.400 309.414 C 32.400 310.194,33.569 312.000,34.075 312.000 C 34.706 312.000,35.600 313.093,35.605 313.871 C 35.611 314.626,36.603 316.072,38.500 318.091 C 39.105 318.735,39.600 319.426,39.600 319.626 C 39.600 320.072,40.571 321.296,42.300 323.030 C 43.015 323.747,43.600 324.513,43.600 324.732 C 43.600 324.952,44.315 325.912,45.189 326.866 C 46.063 327.820,46.783 328.760,46.789 328.956 C 46.795 329.152,47.610 330.100,48.600 331.062 C 49.590 332.024,50.400 332.911,50.400 333.031 C 50.400 333.269,50.973 333.904,55.098 338.239 C 56.584 339.800,58.070 341.240,58.400 341.439 C 58.730 341.637,59.195 342.160,59.433 342.600 C 59.671 343.040,60.256 343.578,60.733 343.795 C 61.210 344.012,61.600 344.325,61.600 344.491 C 61.600 344.913,64.038 347.200,64.488 347.200 C 64.972 347.200,66.000 348.237,66.000 348.725 C 66.000 348.936,66.405 349.381,66.900 349.716 C 67.395 350.050,68.700 351.150,69.800 352.160 C 70.900 353.170,71.935 353.997,72.100 353.998 C 72.266 353.999,73.100 354.720,73.954 355.600 C 74.808 356.480,75.716 357.200,75.971 357.200 C 76.227 357.200,76.856 357.605,77.368 358.100 C 79.063 359.738,80.002 360.400,80.628 360.400 C 80.969 360.400,81.153 360.553,81.037 360.740 C 80.922 360.927,81.271 361.317,81.814 361.607 C 82.356 361.898,82.800 362.285,82.800 362.468 C 82.800 362.650,83.070 362.800,83.400 362.800 C 83.730 362.800,84.000 362.980,84.000 363.200 C 84.000 363.420,84.270 363.600,84.600 363.600 C 84.930 363.600,85.200 363.780,85.200 364.000 C 85.200 364.220,85.470 364.400,85.800 364.400 C 86.130 364.400,86.400 364.565,86.400 364.767 C 86.400 364.969,87.075 365.545,87.900 366.046 C 88.725 366.548,89.490 367.057,89.600 367.179 C 89.996 367.616,91.600 368.400,92.100 368.400 C 92.380 368.400,92.961 368.867,93.390 369.439 C 93.819 370.010,95.504 371.119,97.134 371.903 C 98.764 372.687,100.552 373.750,101.107 374.265 C 101.663 374.779,102.451 375.200,102.858 375.200 C 103.266 375.200,103.600 375.380,103.600 375.600 C 103.600 375.820,104.140 376.000,104.800 376.000 C 105.460 376.000,106.000 376.180,106.000 376.400 C 106.000 376.620,106.288 376.800,106.640 376.800 C 106.991 376.800,107.783 377.340,108.400 378.000 C 109.017 378.660,109.809 379.200,110.160 379.200 C 110.512 379.200,110.800 379.380,110.800 379.600 C 110.800 379.820,111.239 380.000,111.776 380.000 C 112.313 380.000,112.864 380.180,113.000 380.400 C 113.136 380.620,113.687 380.800,114.224 380.800 C 114.761 380.800,115.200 380.980,115.200 381.200 C 115.200 381.420,115.541 381.600,115.957 381.600 C 116.374 381.600,116.810 381.850,116.928 382.156 C 117.207 382.883,119.468 384.000,120.661 384.000 C 121.178 384.000,121.600 384.180,121.600 384.400 C 121.600 384.620,121.962 384.800,122.405 384.800 C 122.848 384.800,123.523 384.964,123.905 385.165 C 126.510 386.535,129.924 388.000,130.512 388.000 C 130.896 388.000,131.523 388.166,131.905 388.368 C 133.778 389.360,140.756 391.600,141.975 391.600 C 142.429 391.600,142.800 391.780,142.800 392.000 C 142.800 392.220,143.419 392.400,144.176 392.400 C 144.933 392.400,145.664 392.580,145.800 392.800 C 145.936 393.020,146.577 393.200,147.224 393.200 C 147.871 393.200,148.400 393.380,148.400 393.600 C 148.400 393.820,149.019 394.000,149.776 394.000 C 150.533 394.000,151.264 394.180,151.400 394.400 C 151.536 394.620,152.904 394.800,154.440 394.800 C 156.633 394.800,157.409 394.964,158.051 395.561 C 158.824 396.282,159.781 396.522,164.000 397.051 C 164.990 397.176,165.971 397.440,166.180 397.639 C 166.389 397.837,167.503 398.000,168.656 398.000 C 169.809 398.000,170.864 398.180,171.000 398.400 C 171.145 398.634,173.519 398.805,176.724 398.813 C 180.904 398.822,182.384 398.964,182.976 399.413 C 184.144 400.296,216.450 400.282,218.146 399.398 C 218.988 398.958,220.649 398.800,224.422 398.800 C 227.411 398.800,229.656 398.633,229.800 398.400 C 229.936 398.180,231.106 398.000,232.400 398.000 C 233.694 398.000,234.864 397.820,235.000 397.600 C 235.136 397.380,236.137 397.200,237.224 397.200 C 238.311 397.200,239.200 397.020,239.200 396.800 C 239.200 396.580,239.918 396.400,240.797 396.400 C 241.960 396.400,242.529 396.183,242.893 395.600 C 243.323 394.912,243.826 394.800,246.496 394.800 C 248.299 394.800,249.600 394.632,249.600 394.400 C 249.600 394.180,250.219 394.000,250.976 394.000 C 251.733 394.000,252.464 393.820,252.600 393.600 C 252.736 393.380,253.467 393.200,254.224 393.200 C 254.981 393.200,255.600 393.020,255.600 392.800 C 255.600 392.580,256.140 392.400,256.800 392.400 C 257.460 392.400,258.000 392.238,258.000 392.040 C 258.000 391.842,258.765 391.598,259.700 391.498 C 261.311 391.324,263.357 390.713,264.895 389.946 C 265.277 389.756,265.864 389.600,266.200 389.600 C 266.782 389.600,267.142 389.461,269.015 388.512 C 269.464 388.285,270.601 387.969,271.543 387.810 C 272.485 387.650,273.352 387.268,273.471 386.960 C 273.589 386.652,274.026 386.400,274.443 386.400 C 274.859 386.400,275.200 386.220,275.200 386.000 C 275.200 385.780,275.740 385.600,276.400 385.600 C 277.060 385.600,277.600 385.420,277.600 385.200 C 277.600 384.980,277.960 384.800,278.400 384.800 C 278.840 384.800,279.200 384.644,279.200 384.453 C 279.200 384.262,279.934 384.007,280.831 383.887 C 281.728 383.766,282.763 383.401,283.131 383.074 C 284.132 382.187,286.742 380.800,287.412 380.800 C 287.735 380.800,288.000 380.620,288.000 380.400 C 288.000 380.180,288.439 380.000,288.976 380.000 C 289.513 380.000,290.064 379.820,290.200 379.600 C 290.336 379.380,290.752 379.199,291.124 379.198 C 291.496 379.197,292.348 378.702,293.017 378.098 C 294.502 376.759,295.792 376.000,296.582 376.000 C 297.223 376.000,299.825 374.643,300.800 373.800 C 301.771 372.960,304.376 371.600,305.012 371.600 C 305.335 371.600,306.320 370.880,307.200 370.000 C 308.080 369.120,309.160 368.400,309.600 368.400 C 310.040 368.400,310.400 368.220,310.400 368.000 C 310.400 367.780,310.609 367.600,310.864 367.600 C 311.255 367.600,315.383 364.728,316.000 364.026 C 316.110 363.901,316.695 363.544,317.300 363.232 C 317.905 362.920,318.400 362.515,318.400 362.332 C 318.400 362.150,318.658 362.000,318.973 362.000 C 319.288 362.000,319.660 361.640,319.800 361.200 C 319.940 360.760,320.402 360.400,320.827 360.400 C 321.252 360.400,321.600 360.220,321.600 360.000 C 321.600 359.780,321.793 359.600,322.029 359.600 C 322.530 359.600,323.815 358.404,323.329 358.391 C 323.148 358.386,323.630 358.074,324.400 357.699 C 325.170 357.323,326.171 356.652,326.624 356.208 C 327.077 355.764,328.042 354.950,328.769 354.400 C 329.496 353.850,330.550 352.905,331.112 352.300 C 331.673 351.695,332.293 351.200,332.489 351.200 C 332.685 351.200,334.170 349.895,335.789 348.300 C 337.409 346.705,339.374 344.860,340.158 344.200 C 340.942 343.540,341.587 342.685,341.591 342.300 C 341.596 341.915,341.835 341.600,342.122 341.600 C 342.726 341.600,345.600 339.067,345.600 338.534 C 345.600 338.338,345.991 337.912,346.470 337.588 C 347.802 336.688,349.598 334.956,349.615 334.557 C 349.623 334.361,350.701 333.120,352.011 331.800 C 353.321 330.480,354.394 329.207,354.396 328.972 C 354.398 328.736,355.210 327.698,356.200 326.665 C 357.190 325.631,358.000 324.638,358.000 324.457 C 358.000 324.275,358.801 323.280,359.779 322.243 C 360.758 321.207,361.670 320.009,361.806 319.580 C 361.943 319.151,362.222 318.800,362.427 318.800 C 362.632 318.800,362.800 318.530,362.800 318.200 C 362.800 317.870,362.950 317.600,363.132 317.600 C 363.315 317.600,363.720 317.105,364.032 316.500 C 364.345 315.895,365.094 314.860,365.698 314.200 C 366.302 313.540,366.797 312.815,366.798 312.588 C 366.799 312.362,367.160 311.917,367.600 311.600 C 368.040 311.283,368.400 310.703,368.400 310.312 C 368.400 309.920,368.580 309.600,368.800 309.600 C 369.020 309.600,369.200 309.150,369.200 308.600 C 369.200 308.050,369.373 307.600,369.584 307.600 C 370.297 307.600,371.448 306.021,373.008 302.902 C 373.862 301.196,374.884 299.451,375.280 299.025 C 375.676 298.598,376.000 298.013,376.000 297.725 C 376.000 297.436,376.180 297.200,376.400 297.200 C 376.620 297.200,376.800 296.660,376.800 296.000 C 376.800 295.340,376.980 294.800,377.200 294.800 C 377.420 294.800,377.600 294.549,377.600 294.242 C 377.600 293.936,378.140 293.107,378.800 292.400 C 379.460 291.693,380.000 290.785,380.000 290.381 C 380.000 289.978,380.180 289.536,380.400 289.400 C 380.620 289.264,380.800 288.713,380.800 288.176 C 380.800 287.639,380.980 287.200,381.200 287.200 C 381.420 287.200,381.600 286.840,381.600 286.400 C 381.600 285.960,381.780 285.600,382.000 285.600 C 382.220 285.600,382.400 285.358,382.400 285.062 C 382.400 284.766,382.760 284.198,383.200 283.800 C 383.640 283.402,384.000 282.755,384.000 282.362 C 384.000 281.969,384.180 281.536,384.400 281.400 C 384.620 281.264,384.800 280.533,384.800 279.776 C 384.800 279.019,384.980 278.400,385.200 278.400 C 385.420 278.400,385.600 278.040,385.600 277.600 C 385.600 277.160,385.780 276.800,386.000 276.800 C 386.220 276.800,386.400 276.589,386.400 276.331 C 386.400 276.074,386.638 275.579,386.928 275.231 C 387.218 274.884,387.783 273.520,388.184 272.200 C 389.768 266.983,389.903 266.619,391.352 263.663 C 392.090 262.159,392.400 260.886,392.400 259.363 C 392.400 258.173,392.580 257.200,392.800 257.200 C 393.020 257.200,393.200 256.660,393.200 256.000 C 393.200 255.340,393.380 254.800,393.600 254.800 C 393.820 254.800,394.000 254.170,394.000 253.400 C 394.000 252.630,394.180 252.000,394.400 252.000 C 394.620 252.000,394.800 251.460,394.800 250.800 C 394.800 250.140,394.944 249.600,395.120 249.600 C 395.711 249.600,396.400 246.961,396.400 244.695 C 396.400 243.459,396.580 242.336,396.800 242.200 C 397.020 242.064,397.200 241.254,397.200 240.400 C 397.200 239.546,397.380 238.736,397.600 238.600 C 397.820 238.464,398.000 237.564,398.000 236.600 C 398.000 235.636,398.180 234.736,398.400 234.600 C 398.620 234.464,398.800 233.409,398.800 232.256 C 398.800 231.103,399.025 229.935,399.300 229.660 C 400.030 228.930,400.030 171.070,399.300 170.340 C 399.025 170.065,398.800 168.987,398.800 167.944 C 398.800 166.901,398.620 165.936,398.400 165.800 C 398.180 165.664,398.000 164.663,398.000 163.576 C 398.000 162.489,397.820 161.600,397.600 161.600 C 397.380 161.600,397.200 160.891,397.200 160.024 C 397.200 159.157,397.020 158.336,396.800 158.200 C 396.580 158.064,396.399 156.748,396.399 155.276 C 396.397 153.308,396.186 152.254,395.599 151.290 C 395.159 150.570,394.800 149.535,394.800 148.990 C 394.800 148.446,394.620 148.000,394.400 148.000 C 394.180 148.000,394.000 147.449,394.000 146.776 C 394.000 146.063,393.833 145.656,393.600 145.800 C 393.358 145.949,393.200 145.404,393.200 144.424 C 393.200 143.531,393.020 142.800,392.800 142.800 C 392.580 142.800,392.400 141.988,392.400 140.995 C 392.400 140.002,392.246 138.877,392.057 138.495 C 391.869 138.113,391.450 137.260,391.127 136.600 C 390.804 135.940,390.297 134.590,390.000 133.600 C 389.704 132.610,389.312 131.629,389.130 131.420 C 388.949 131.211,388.794 130.581,388.786 130.020 C 388.778 129.459,388.514 128.550,388.200 128.000 C 387.886 127.450,387.622 126.589,387.614 126.087 C 387.606 125.586,387.330 125.071,387.000 124.945 C 386.670 124.818,386.400 124.374,386.400 123.957 C 386.400 123.541,386.220 123.200,386.000 123.200 C 385.780 123.200,385.600 122.840,385.600 122.400 C 385.600 121.960,385.420 121.600,385.200 121.600 C 384.980 121.600,384.800 121.071,384.800 120.424 C 384.800 119.777,384.620 119.136,384.400 119.000 C 384.180 118.864,384.000 118.435,384.000 118.048 C 384.000 117.660,383.465 116.635,382.811 115.771 C 382.157 114.907,381.617 113.885,381.611 113.500 C 381.605 113.115,381.420 112.800,381.200 112.800 C 380.980 112.800,380.800 112.350,380.800 111.800 C 380.800 111.250,380.620 110.800,380.400 110.800 C 380.180 110.800,380.000 110.440,380.000 110.000 C 380.000 109.560,379.820 109.200,379.600 109.200 C 379.380 109.200,379.200 108.912,379.200 108.560 C 379.200 108.209,378.660 107.417,378.000 106.800 C 377.218 106.069,376.797 105.282,376.791 104.540 C 376.786 103.913,376.430 102.950,376.000 102.400 C 375.570 101.850,375.214 101.257,375.209 101.083 C 375.204 100.908,374.750 100.280,374.200 99.687 C 373.650 99.093,373.200 98.358,373.200 98.053 C 373.200 97.143,370.800 93.228,369.969 92.784 C 369.546 92.557,369.200 92.114,369.200 91.798 C 369.200 91.011,367.795 88.575,366.592 87.279 C 366.047 86.690,365.600 86.099,365.600 85.966 C 365.600 85.833,365.150 85.201,364.600 84.562 C 364.051 83.923,363.601 83.175,363.600 82.900 C 363.600 82.625,363.459 82.400,363.286 82.400 C 363.114 82.400,362.635 81.829,362.223 81.132 C 361.811 80.434,360.873 79.279,360.137 78.565 C 359.402 77.851,358.800 77.072,358.800 76.833 C 358.800 76.595,358.620 76.400,358.400 76.400 C 358.180 76.400,358.000 76.125,358.000 75.789 C 358.000 75.454,357.190 74.369,356.200 73.379 C 355.210 72.389,354.400 71.400,354.400 71.182 C 354.400 70.964,353.320 69.712,352.000 68.400 C 350.680 67.088,349.600 65.871,349.600 65.696 C 349.600 65.520,348.655 64.478,347.500 63.379 C 346.345 62.280,345.047 60.896,344.615 60.304 C 344.183 59.711,343.328 59.019,342.715 58.765 C 342.102 58.511,341.600 58.127,341.600 57.913 C 341.600 57.410,332.730 48.823,332.196 48.810 C 331.974 48.805,331.576 48.453,331.311 48.030 C 331.047 47.606,329.968 46.673,328.915 45.956 C 327.862 45.239,326.868 44.461,326.706 44.226 C 326.525 43.963,326.400 43.953,326.381 44.200 C 326.363 44.420,326.187 44.195,325.988 43.700 C 325.789 43.205,325.350 42.800,325.013 42.800 C 324.676 42.800,324.400 42.662,324.400 42.494 C 324.400 42.326,323.680 41.744,322.800 41.200 C 321.920 40.656,321.200 40.074,321.200 39.906 C 321.200 39.738,320.930 39.600,320.600 39.600 C 320.270 39.600,319.999 39.465,319.997 39.300 C 319.996 39.135,319.321 38.552,318.497 38.005 C 317.674 37.458,316.727 36.738,316.394 36.405 C 316.061 36.072,315.431 35.572,314.994 35.294 C 312.467 33.685,311.754 33.207,311.338 32.844 C 311.085 32.622,310.064 32.058,309.070 31.591 C 308.076 31.124,307.163 30.481,307.041 30.162 C 306.862 29.697,301.999 27.082,301.190 27.017 C 301.075 27.008,300.447 26.505,299.794 25.900 C 299.142 25.295,298.291 24.800,297.904 24.800 C 297.517 24.800,297.200 24.620,297.200 24.400 C 297.200 24.180,296.660 24.000,296.000 24.000 C 295.340 24.000,294.800 23.820,294.800 23.600 C 294.800 23.380,294.532 23.200,294.203 23.200 C 293.875 23.200,293.091 22.660,292.460 22.000 C 291.829 21.340,291.028 20.800,290.680 20.800 C 290.332 20.800,289.936 20.620,289.800 20.400 C 289.664 20.180,289.023 20.000,288.376 20.000 C 287.729 20.000,287.200 19.820,287.200 19.600 C 287.200 19.380,286.840 19.200,286.400 19.200 C 285.960 19.200,285.600 19.020,285.600 18.800 C 285.600 18.580,285.240 18.400,284.800 18.400 C 284.360 18.400,284.000 18.224,284.000 18.008 C 284.000 17.563,281.113 16.000,280.291 16.000 C 279.994 16.000,279.005 15.640,278.094 15.200 C 277.184 14.760,276.156 14.400,275.811 14.400 C 275.466 14.400,274.459 13.942,273.572 13.382 C 272.685 12.823,271.384 12.328,270.680 12.282 C 269.976 12.237,269.162 11.975,268.871 11.700 C 268.581 11.425,268.026 11.200,267.638 11.200 C 267.250 11.200,266.810 11.077,266.659 10.926 C 266.108 10.375,263.547 9.689,262.784 9.888 C 262.353 10.001,262.000 9.921,262.000 9.711 C 262.000 9.125,260.122 8.400,258.605 8.400 C 257.858 8.400,257.136 8.220,257.000 8.000 C 256.864 7.780,256.324 7.600,255.800 7.600 C 255.276 7.600,254.736 7.420,254.600 7.200 C 254.464 6.980,253.834 6.800,253.200 6.800 C 252.566 6.800,251.936 6.620,251.800 6.400 C 251.664 6.180,250.933 6.000,250.176 6.000 C 249.419 6.000,248.800 5.820,248.800 5.600 C 248.800 5.368,247.499 5.200,245.696 5.200 C 243.026 5.200,242.523 5.088,242.093 4.400 C 241.702 3.774,241.160 3.600,239.597 3.600 C 238.498 3.600,237.600 3.420,237.600 3.200 C 237.600 2.980,236.711 2.800,235.624 2.800 C 234.537 2.800,233.536 2.620,233.400 2.400 C 233.264 2.180,232.094 2.000,230.800 2.000 C 229.506 2.000,228.336 1.820,228.200 1.600 C 228.053 1.363,225.556 1.200,222.056 1.200 C 217.872 1.200,216.015 1.055,215.660 0.700 C 214.857 -0.104,187.387 -0.221,185.890 0.573 M147.776 113.631 C 154.251 114.782,156.748 115.382,159.400 116.424 C 159.840 116.596,160.728 116.853,161.373 116.995 C 162.018 117.136,163.267 117.600,164.148 118.026 C 165.029 118.452,165.873 118.800,166.024 118.800 C 166.471 118.800,173.653 122.960,175.600 124.347 C 176.590 125.052,178.030 126.046,178.800 126.557 C 182.519 129.021,194.000 141.401,194.000 142.947 C 194.000 143.105,194.183 143.451,194.406 143.717 C 195.993 145.608,199.279 151.913,199.816 154.100 C 200.087 155.201,201.200 155.664,201.200 154.675 C 201.200 152.787,207.602 141.662,210.415 138.660 C 211.065 137.967,211.597 137.242,211.598 137.048 C 211.607 135.308,224.874 124.217,230.289 121.422 C 231.780 120.653,233.450 119.769,234.000 119.459 C 235.815 118.434,237.341 117.857,244.400 115.527 C 253.088 112.661,273.261 112.683,279.800 115.567 C 280.240 115.761,281.680 116.234,283.000 116.617 C 285.306 117.288,287.884 118.292,290.000 119.345 C 294.098 121.383,299.282 124.511,300.600 125.740 C 301.040 126.150,302.030 126.907,302.800 127.422 C 308.023 130.915,318.076 143.070,320.516 148.844 C 320.831 149.590,321.492 151.100,321.984 152.200 C 322.477 153.300,323.030 154.560,323.213 155.000 C 323.396 155.440,323.822 156.430,324.159 157.200 C 325.040 159.212,326.298 164.429,326.668 167.600 C 326.783 168.590,327.040 169.571,327.239 169.780 C 327.744 170.311,327.707 186.287,327.200 186.600 C 326.980 186.736,326.800 187.816,326.800 189.000 C 326.800 190.184,326.620 191.264,326.400 191.400 C 326.180 191.536,326.000 192.078,326.000 192.604 C 326.000 193.830,325.000 197.735,324.157 199.800 C 323.798 200.680,323.367 201.760,323.199 202.200 C 320.860 208.338,311.304 223.603,305.672 230.200 C 305.296 230.640,304.551 231.630,304.017 232.400 C 303.482 233.170,302.360 234.518,301.522 235.396 C 300.685 236.274,300.000 237.141,300.000 237.323 C 300.000 238.044,279.976 258.217,276.957 260.537 C 276.053 261.232,273.417 263.420,271.098 265.400 C 268.779 267.380,265.858 269.810,264.606 270.800 C 263.354 271.790,262.116 272.780,261.855 273.000 C 260.874 273.827,253.503 279.459,252.000 280.530 C 251.450 280.922,250.010 281.963,248.800 282.844 C 247.590 283.724,245.340 285.292,243.800 286.329 C 242.260 287.366,239.973 288.976,238.717 289.907 C 237.461 290.838,236.349 291.600,236.245 291.600 C 236.142 291.600,234.942 292.365,233.579 293.300 C 232.216 294.235,230.804 295.180,230.441 295.400 C 227.427 297.226,222.085 300.633,221.600 301.038 C 221.270 301.314,220.010 302.068,218.800 302.714 C 217.590 303.360,215.361 304.650,213.847 305.581 C 210.617 307.566,208.799 308.613,206.600 309.752 C 205.720 310.208,204.917 310.639,204.815 310.709 C 204.713 310.780,204.623 311.594,204.615 312.519 C 204.598 314.476,203.591 314.937,201.838 313.788 C 200.911 313.181,200.725 313.179,199.553 313.763 C 197.313 314.881,195.838 313.930,196.626 311.877 C 196.851 311.291,194.929 309.600,194.038 309.600 C 193.797 309.600,193.600 309.440,193.600 309.243 C 193.600 309.047,192.882 308.599,192.004 308.248 C 191.126 307.897,188.869 306.617,186.990 305.405 C 185.110 304.192,183.486 303.200,183.381 303.200 C 183.276 303.200,180.539 301.535,177.299 299.500 C 174.059 297.465,171.105 295.620,170.734 295.400 C 168.876 294.299,160.182 288.207,160.067 287.925 C 159.993 287.746,159.758 287.600,159.545 287.600 C 159.174 287.600,156.553 285.843,152.383 282.800 C 151.327 282.030,149.066 280.410,147.358 279.200 C 145.650 277.990,143.430 276.236,142.426 275.302 C 141.422 274.368,140.445 273.603,140.256 273.602 C 139.874 273.600,135.393 269.997,132.243 267.160 C 131.119 266.148,129.899 265.158,129.532 264.960 C 129.165 264.762,127.905 263.698,126.732 262.596 C 125.559 261.494,123.438 259.604,122.019 258.396 C 115.928 253.214,104.266 241.076,98.388 233.800 C 96.966 232.040,95.584 230.330,95.318 230.000 C 95.051 229.670,93.918 228.140,92.800 226.600 C 91.682 225.060,90.505 223.483,90.184 223.095 C 89.863 222.708,89.600 222.194,89.600 221.953 C 89.600 221.712,89.094 220.859,88.476 220.058 C 84.074 214.350,78.000 203.861,78.000 201.966 C 78.000 201.571,77.820 201.136,77.600 201.000 C 77.380 200.864,77.200 200.324,77.200 199.800 C 77.200 199.276,77.049 198.754,76.864 198.639 C 76.509 198.420,75.554 194.887,74.853 191.200 C 73.724 185.256,73.520 182.654,73.738 176.966 C 73.954 171.347,74.124 169.801,75.120 164.396 C 75.559 162.016,76.968 157.430,77.606 156.305 C 77.823 155.923,78.000 155.328,78.000 154.982 C 78.000 154.637,78.997 152.429,80.215 150.077 C 83.174 144.364,83.812 143.256,84.725 142.252 C 85.150 141.783,85.566 141.180,85.649 140.911 C 85.889 140.132,89.963 135.285,92.804 132.398 C 98.678 126.428,111.619 118.247,117.400 116.850 C 118.280 116.638,120.080 116.105,121.400 115.666 C 122.720 115.227,124.790 114.683,126.000 114.458 C 127.210 114.232,129.100 113.881,130.200 113.679 C 133.055 113.153,144.904 113.120,147.776 113.631 " stroke="none" fill="#eb536b" fill-rule="evenodd"></path><path id="path2" d="M137.100 113.495 C 138.255 113.576,140.145 113.576,141.300 113.495 C 142.455 113.414,141.510 113.348,139.200 113.348 C 136.890 113.348,135.945 113.414,137.100 113.495 M260.313 113.495 C 261.476 113.576,263.276 113.576,264.313 113.493 C 265.351 113.411,264.400 113.345,262.200 113.346 C 260.000 113.347,259.151 113.414,260.313 113.495 M185.400 133.200 C 187.150 134.960,188.671 136.400,188.781 136.400 C 188.891 136.400,187.550 134.960,185.800 133.200 C 184.050 131.440,182.529 130.000,182.419 130.000 C 182.309 130.000,183.650 131.440,185.400 133.200 M73.746 178.600 C 73.747 180.800,73.814 181.649,73.895 180.487 C 73.976 179.324,73.976 177.524,73.893 176.487 C 73.811 175.449,73.745 176.400,73.746 178.600 M101.600 237.325 C 101.600 237.394,102.185 237.979,102.900 238.625 L 104.200 239.800 103.025 238.500 C 101.930 237.288,101.600 237.016,101.600 237.325 M290.378 247.100 L 289.000 248.600 290.500 247.222 C 291.896 245.938,292.184 245.600,291.878 245.600 C 291.812 245.600,291.137 246.275,290.378 247.100 M278.981 258.100 L 277.400 259.800 279.100 258.219 C 280.681 256.748,280.984 256.400,280.681 256.400 C 280.616 256.400,279.851 257.165,278.981 258.100 M122.800 258.525 C 122.800 258.594,123.385 259.179,124.100 259.825 L 125.400 261.000 124.225 259.700 C 123.130 258.488,122.800 258.216,122.800 258.525 M204.064 312.267 C 204.029 313.183,203.775 314.024,203.500 314.135 C 203.108 314.293,203.111 314.344,203.513 314.368 C 204.210 314.411,204.489 313.541,204.292 311.938 C 204.141 310.707,204.123 310.733,204.064 312.267 " stroke="none" fill="#ec8c9c" fill-rule="evenodd"></path><path id="path3" d="M131.200 113.621 C 130.552 113.842,131.045 113.880,132.600 113.731 C 133.920 113.604,135.075 113.432,135.167 113.350 C 135.490 113.059,132.186 113.284,131.200 113.621 M143.233 113.344 C 143.325 113.424,144.480 113.589,145.800 113.712 C 147.291 113.851,147.821 113.811,147.200 113.607 C 146.212 113.284,142.911 113.065,143.233 113.344 M253.800 113.602 C 253.305 113.816,253.990 113.860,255.600 113.718 C 257.030 113.592,258.275 113.423,258.367 113.344 C 258.720 113.039,254.558 113.274,253.800 113.602 M266.033 113.344 C 266.125 113.424,267.280 113.595,268.600 113.724 C 270.124 113.874,270.708 113.831,270.200 113.608 C 269.443 113.275,265.679 113.037,266.033 113.344 M126.200 114.419 C 125.642 114.671,125.885 114.707,127.000 114.538 C 127.880 114.404,128.675 114.228,128.767 114.147 C 129.110 113.844,126.968 114.071,126.200 114.419 M149.233 114.144 C 149.325 114.224,150.210 114.396,151.200 114.527 C 152.402 114.686,152.734 114.647,152.200 114.410 C 151.436 114.072,148.886 113.843,149.233 114.144 M248.800 114.412 C 248.381 114.691,248.742 114.733,250.000 114.550 C 252.241 114.225,252.560 113.998,250.767 114.006 C 250.015 114.009,249.130 114.192,248.800 114.412 M272.433 114.144 C 272.525 114.224,273.410 114.396,274.400 114.527 C 275.602 114.686,275.934 114.647,275.400 114.410 C 274.636 114.072,272.086 113.843,272.433 114.144 M121.243 115.605 C 120.057 116.031,118.992 116.475,118.876 116.590 C 118.540 116.926,119.062 116.835,120.274 116.345 C 120.893 116.095,122.300 115.660,123.400 115.379 C 124.583 115.077,124.991 114.860,124.400 114.848 C 123.850 114.838,122.429 115.178,121.243 115.605 M155.000 115.441 C 158.746 116.542,159.598 116.720,159.374 116.357 C 159.252 116.161,158.825 116.000,158.425 116.000 C 158.025 116.000,157.051 115.730,156.262 115.400 C 155.472 115.070,154.415 114.812,153.913 114.827 C 153.397 114.842,153.871 115.110,155.000 115.441 M244.400 115.488 C 240.039 117.013,239.284 117.498,243.000 116.387 C 243.660 116.190,245.100 115.765,246.200 115.441 C 247.416 115.084,247.808 114.855,247.200 114.856 C 246.650 114.858,245.390 115.142,244.400 115.488 M277.600 115.219 C 278.370 115.444,279.360 115.783,279.800 115.972 C 281.242 116.591,286.141 117.992,286.302 117.832 C 286.388 117.745,285.141 117.283,283.529 116.803 C 281.918 116.324,280.307 115.780,279.949 115.594 C 279.591 115.407,278.601 115.154,277.749 115.032 L 276.200 114.809 277.600 115.219 M115.800 117.386 C 114.200 118.118,114.992 118.135,117.000 117.412 C 117.880 117.095,118.240 116.835,117.800 116.836 C 117.360 116.836,116.460 117.083,115.800 117.386 M110.700 119.647 C 109.875 120.064,109.200 120.491,109.200 120.595 C 109.200 120.833,111.149 120.001,112.189 119.318 C 113.333 118.567,112.446 118.762,110.700 119.647 M169.755 121.190 C 172.150 122.502,174.414 123.851,174.786 124.187 C 175.158 124.524,175.608 124.800,175.785 124.800 C 176.419 124.800,174.029 123.178,170.195 121.007 C 168.051 119.793,166.096 118.801,165.849 118.803 C 165.602 118.804,167.360 119.878,169.755 121.190 M233.211 119.820 C 231.422 121.083,231.837 121.075,234.059 119.805 C 235.017 119.257,235.530 118.816,235.200 118.824 C 234.870 118.833,233.975 119.280,233.211 119.820 M289.400 119.438 C 290.060 119.786,291.320 120.455,292.200 120.925 C 294.808 122.318,296.385 122.941,295.424 122.199 C 294.996 121.869,294.511 121.600,294.345 121.600 C 294.179 121.600,292.968 120.970,291.654 120.200 C 290.340 119.430,289.026 118.801,288.733 118.802 C 288.440 118.804,288.740 119.090,289.400 119.438 M106.702 121.704 C 105.879 122.163,105.273 122.606,105.355 122.689 C 105.486 122.820,108.312 121.385,108.767 120.957 C 109.214 120.535,108.036 120.962,106.702 121.704 M228.203 122.486 C 225.398 124.112,218.055 130.059,215.100 133.098 C 210.219 138.117,210.724 137.951,215.900 132.835 C 219.552 129.226,223.578 125.964,227.838 123.164 C 229.503 122.069,229.767 121.580,228.203 122.486 M100.013 126.272 C 95.674 129.550,93.281 131.600,93.794 131.600 C 93.920 131.600,95.189 130.612,96.613 129.404 C 98.037 128.196,100.461 126.291,102.001 125.172 C 104.414 123.416,105.130 122.788,104.700 122.804 C 104.645 122.806,102.536 124.366,100.013 126.272 M296.400 122.996 C 296.400 123.087,297.210 123.719,298.200 124.400 C 299.190 125.081,299.994 125.495,299.987 125.319 C 299.975 125.000,296.400 122.685,296.400 122.996 M177.288 125.813 C 177.886 126.443,178.447 126.877,178.535 126.779 C 178.623 126.680,178.133 126.165,177.447 125.634 L 176.200 124.669 177.288 125.813 M183.278 130.757 C 185.631 132.996,188.745 136.352,190.200 138.214 C 191.654 140.076,192.939 141.600,193.056 141.600 C 194.001 141.600,186.112 132.848,181.800 129.112 C 180.260 127.777,180.925 128.518,183.278 130.757 M305.600 130.143 C 307.030 131.636,308.560 133.045,309.000 133.274 L 309.800 133.691 309.000 132.914 C 308.560 132.487,307.030 131.078,305.600 129.783 L 303.000 127.428 305.600 130.143 M91.758 133.300 C 91.098 134.015,90.311 134.960,90.008 135.400 C 89.706 135.840,89.964 135.660,90.583 135.000 C 91.202 134.340,92.179 133.396,92.754 132.902 C 93.329 132.408,93.610 132.003,93.378 132.002 C 93.147 132.001,92.417 132.585,91.758 133.300 M311.414 136.100 C 312.453 137.255,314.105 139.325,315.086 140.700 C 316.067 142.075,316.961 143.200,317.073 143.200 C 317.651 143.200,310.475 134.066,309.863 134.024 C 309.678 134.011,310.376 134.945,311.414 136.100 M87.431 138.493 C 86.424 139.644,85.600 140.738,85.600 140.924 C 85.600 141.109,86.083 140.663,86.673 139.931 C 87.263 139.199,88.197 138.105,88.748 137.500 C 89.299 136.895,89.640 136.400,89.506 136.400 C 89.372 136.400,88.438 137.342,87.431 138.493 M208.942 140.300 C 205.835 145.129,203.204 149.477,203.202 149.785 C 203.201 149.996,204.293 148.376,205.629 146.185 C 206.965 143.993,208.504 141.615,209.050 140.900 C 209.595 140.185,209.895 139.600,209.717 139.600 C 209.538 139.600,209.190 139.915,208.942 140.300 M84.470 142.526 C 83.991 143.035,83.600 143.592,83.600 143.764 C 83.600 143.936,83.220 144.610,82.756 145.261 C 82.292 145.913,81.978 146.511,82.058 146.591 C 82.137 146.671,82.953 145.580,83.871 144.168 C 85.694 141.362,85.777 141.135,84.470 142.526 M194.596 144.200 C 194.915 145.229,196.529 147.605,196.755 147.378 C 196.850 147.283,196.652 146.889,196.314 146.502 C 195.976 146.116,195.396 145.260,195.025 144.600 C 194.653 143.940,194.460 143.760,194.596 144.200 M318.167 145.300 C 318.743 146.235,319.777 148.219,320.465 149.709 C 321.153 151.199,321.782 152.351,321.863 152.270 C 322.230 151.903,317.859 143.600,317.300 143.600 C 317.200 143.600,317.590 144.365,318.167 145.300 M198.344 151.391 C 199.131 153.243,199.838 154.696,199.915 154.618 C 200.111 154.423,197.596 148.445,197.220 148.212 C 197.052 148.108,197.558 149.539,198.344 151.391 M79.423 151.552 C 78.583 153.276,77.995 154.937,78.116 155.243 C 78.274 155.640,78.346 155.596,78.368 155.090 C 78.386 154.700,79.042 153.106,79.826 151.549 C 80.610 149.992,81.184 148.651,81.101 148.568 C 81.019 148.486,80.264 149.828,79.423 151.552 M201.700 153.093 C 201.425 153.679,201.200 154.394,201.200 154.680 C 201.200 154.966,200.894 155.200,200.520 155.200 C 200.021 155.200,199.958 155.318,200.285 155.645 C 200.901 156.261,201.600 155.735,201.600 154.656 C 201.600 154.163,201.800 153.560,202.045 153.315 C 202.290 153.070,202.425 152.680,202.345 152.448 C 202.265 152.216,201.975 152.506,201.700 153.093 M323.617 156.800 C 323.631 157.517,324.765 159.600,324.786 158.946 C 324.794 158.696,324.531 157.976,324.202 157.346 C 323.874 156.716,323.610 156.470,323.617 156.800 M324.993 160.600 C 325.087 161.260,325.362 162.700,325.605 163.800 C 325.847 164.900,326.202 166.610,326.393 167.600 L 326.741 169.400 326.600 167.600 C 326.453 165.729,325.946 163.203,325.236 160.800 C 324.874 159.576,324.844 159.551,324.993 160.600 M75.648 162.047 C 75.345 163.282,75.197 164.542,75.317 164.847 C 75.438 165.151,75.551 164.893,75.568 164.274 C 75.586 163.654,75.791 162.790,76.025 162.353 C 76.259 161.916,76.394 161.163,76.324 160.679 C 76.246 160.132,75.991 160.647,75.648 162.047 M74.656 166.484 C 74.521 166.988,74.427 167.760,74.446 168.200 C 74.465 168.640,74.645 168.298,74.846 167.440 C 75.236 165.778,75.070 164.940,74.656 166.484 M327.000 178.200 C 327.000 182.888,327.135 186.640,327.300 186.538 C 327.465 186.436,327.600 182.684,327.600 178.200 C 327.600 173.716,327.465 169.964,327.300 169.862 C 327.135 169.760,327.000 173.512,327.000 178.200 M73.800 172.400 C 73.645 173.528,73.602 174.536,73.706 174.639 C 73.809 174.742,74.016 173.900,74.167 172.767 C 74.317 171.634,74.359 170.626,74.261 170.528 C 74.163 170.429,73.955 171.272,73.800 172.400 M73.693 183.400 C 73.694 184.060,73.832 185.140,74.000 185.800 C 74.423 187.463,74.442 185.826,74.023 183.800 C 73.745 182.455,73.692 182.391,73.693 183.400 M326.393 189.481 C 326.287 190.625,326.347 191.415,326.526 191.235 C 326.705 191.056,326.791 190.119,326.718 189.154 L 326.585 187.400 326.393 189.481 M74.428 189.233 C 74.444 189.765,74.619 190.560,74.819 191.000 C 75.071 191.558,75.107 191.315,74.938 190.200 C 74.655 188.343,74.387 187.836,74.428 189.233 M75.233 192.800 C 75.222 193.350,75.467 194.610,75.779 195.600 C 76.512 197.926,76.537 196.421,75.809 193.800 C 75.460 192.541,75.246 192.171,75.233 192.800 M325.693 193.200 C 325.693 193.970,325.775 194.285,325.876 193.900 C 325.976 193.515,325.976 192.885,325.876 192.500 C 325.775 192.115,325.693 192.430,325.693 193.200 M324.982 195.900 C 324.854 196.505,324.493 197.707,324.179 198.571 C 323.865 199.435,323.678 200.211,323.762 200.295 C 323.942 200.475,325.039 197.494,325.380 195.900 C 325.509 195.295,325.525 194.800,325.415 194.800 C 325.305 194.800,325.110 195.295,324.982 195.900 M78.046 202.063 C 77.993 202.821,80.022 206.911,80.309 206.625 C 80.412 206.521,80.046 205.663,79.494 204.718 C 78.943 203.773,78.402 202.640,78.292 202.200 C 78.146 201.616,78.080 201.579,78.046 202.063 M320.309 207.709 C 319.495 209.278,318.888 210.621,318.959 210.692 C 319.031 210.764,319.761 209.544,320.582 207.982 C 321.403 206.419,322.010 205.077,321.932 204.998 C 321.853 204.920,321.123 206.140,320.309 207.709 M82.000 210.563 C 82.000 210.941,88.837 220.776,89.298 221.060 C 89.496 221.183,88.436 219.509,86.944 217.341 C 83.013 211.634,82.000 210.245,82.000 210.563 M316.747 213.900 C 315.182 216.259,308.508 225.989,306.939 228.200 C 305.556 230.149,306.067 229.633,308.326 226.800 C 309.407 225.444,315.843 216.010,317.337 213.593 C 318.397 211.876,317.927 212.121,316.747 213.900 M91.638 224.982 C 92.387 226.030,93.585 227.719,94.300 228.736 C 95.015 229.753,95.600 230.429,95.600 230.237 C 95.600 229.819,91.188 223.640,90.653 223.309 C 90.446 223.181,90.889 223.934,91.638 224.982 M97.355 232.519 C 98.203 233.553,98.980 234.400,99.082 234.400 C 99.355 234.400,96.821 231.260,96.277 230.924 C 96.022 230.766,96.507 231.484,97.355 232.519 M303.407 232.626 C 302.809 233.411,302.401 234.134,302.501 234.234 C 302.601 234.334,303.162 233.693,303.747 232.808 C 305.065 230.816,304.868 230.711,303.407 232.626 M300.834 235.753 L 299.869 237.000 301.013 235.912 C 301.643 235.314,302.077 234.753,301.979 234.665 C 301.880 234.577,301.365 235.067,300.834 235.753 M100.718 236.700 C 101.594 237.745,102.730 238.960,103.242 239.400 C 103.754 239.840,103.122 238.985,101.837 237.500 C 100.553 236.015,99.418 234.800,99.314 234.800 C 99.210 234.800,99.842 235.655,100.718 236.700 M295.812 241.505 L 291.881 245.800 295.989 241.682 C 298.248 239.417,300.017 237.484,299.920 237.387 C 299.823 237.290,297.974 239.143,295.812 241.505 M105.055 241.572 C 106.856 243.736,111.953 248.977,112.078 248.793 C 112.151 248.687,110.408 246.787,108.205 244.572 C 106.002 242.356,104.585 241.006,105.055 241.572 M288.128 249.500 C 286.387 251.205,282.902 254.573,280.382 256.985 C 277.862 259.397,276.340 260.980,277.000 260.502 C 278.403 259.487,291.891 246.400,291.534 246.400 C 291.401 246.400,289.868 247.795,288.128 249.500 M113.848 250.800 C 114.662 251.680,115.398 252.400,115.483 252.400 C 115.568 252.400,115.059 251.680,114.352 250.800 C 113.645 249.920,112.909 249.200,112.717 249.200 C 112.525 249.200,113.034 249.920,113.848 250.800 M117.200 253.780 C 119.252 256.085,119.182 256.018,122.000 258.372 C 124.906 260.799,124.213 260.058,119.200 255.380 C 117.330 253.635,116.430 252.915,117.200 253.780 M127.303 262.986 C 128.677 264.188,130.666 265.933,131.724 266.865 C 134.805 269.576,135.648 269.956,132.832 267.364 C 131.420 266.064,129.800 264.707,129.232 264.349 C 128.664 263.991,127.580 263.046,126.822 262.249 C 126.063 261.452,125.300 260.800,125.125 260.800 C 124.950 260.800,125.930 261.784,127.303 262.986 M274.793 261.808 C 274.516 262.143,272.424 263.964,270.144 265.856 C 267.865 267.747,266.000 269.386,266.000 269.496 C 266.000 269.850,274.948 262.332,275.402 261.597 C 275.782 260.981,275.357 261.129,274.793 261.808 M137.774 271.696 C 138.888 272.738,139.941 273.593,140.114 273.596 C 140.287 273.598,139.747 273.025,138.914 272.322 C 136.205 270.034,135.703 269.759,137.774 271.696 M263.600 271.249 C 262.519 272.226,262.279 272.558,263.000 272.081 C 264.106 271.349,265.937 269.584,265.562 269.612 C 265.473 269.619,264.590 270.355,263.600 271.249 M258.521 275.103 C 255.877 277.271,253.632 278.974,251.602 280.351 C 250.831 280.874,250.110 281.432,250.000 281.591 C 249.890 281.750,249.033 282.361,248.095 282.948 C 246.410 284.004,245.956 284.343,244.000 286.008 C 242.911 286.935,245.708 285.083,248.962 282.721 C 250.083 281.908,251.450 280.922,252.000 280.530 C 252.550 280.138,254.080 278.990,255.400 277.980 C 256.720 276.969,258.669 275.480,259.731 274.671 C 260.792 273.862,261.477 273.200,261.251 273.200 C 261.026 273.200,259.797 274.056,258.521 275.103 M142.800 275.761 C 142.800 275.876,143.880 276.704,145.200 277.600 C 148.045 279.532,148.430 279.468,145.700 277.517 C 143.313 275.811,142.800 275.500,142.800 275.761 M149.400 280.560 C 150.280 281.358,151.360 282.204,151.800 282.441 C 152.738 282.945,150.741 281.169,149.000 279.951 C 148.217 279.402,148.356 279.614,149.400 280.560 M153.600 283.580 C 154.999 284.767,158.000 286.874,158.000 286.667 C 158.000 286.462,154.054 283.481,153.200 283.040 C 152.870 282.870,153.050 283.113,153.600 283.580 M160.005 287.880 C 160.008 288.056,160.638 288.607,161.405 289.104 C 163.203 290.268,163.200 290.000,161.400 288.627 C 160.630 288.040,160.002 287.703,160.005 287.880 M238.441 289.636 C 235.779 291.680,235.345 292.418,237.927 290.512 C 240.350 288.724,241.682 287.598,241.331 287.636 C 241.149 287.655,239.848 288.555,238.441 289.636 M233.227 293.120 C 230.407 295.041,229.128 295.857,225.885 297.800 C 224.417 298.680,223.212 299.536,223.208 299.702 C 223.202 299.945,226.901 297.750,230.459 295.400 C 234.187 292.938,235.600 291.945,235.600 291.788 C 235.600 291.508,235.572 291.523,233.227 293.120 M167.000 292.670 C 167.753 293.399,170.715 295.600,170.944 295.600 C 171.069 295.600,172.708 296.591,174.586 297.802 C 176.464 299.014,178.000 299.915,178.000 299.805 C 178.000 299.577,171.293 295.200,170.944 295.200 C 170.818 295.200,170.059 294.690,169.258 294.067 C 167.710 292.864,166.299 291.991,167.000 292.670 M180.685 301.608 C 182.051 302.484,183.311 303.198,183.485 303.196 C 183.658 303.194,182.668 302.474,181.284 301.596 C 179.900 300.718,178.640 300.004,178.484 300.008 C 178.328 300.013,179.318 300.733,180.685 301.608 M221.200 300.815 C 220.650 301.253,219.609 301.903,218.886 302.258 C 218.163 302.614,217.647 302.980,217.739 303.072 C 217.941 303.274,220.625 301.796,221.953 300.751 C 222.478 300.338,222.749 300.004,222.554 300.009 C 222.359 300.014,221.750 300.377,221.200 300.815 M185.200 304.126 C 185.200 304.382,190.709 307.728,192.100 308.317 C 192.705 308.573,193.200 308.688,193.200 308.571 C 193.200 308.455,192.525 308.078,191.700 307.734 C 190.875 307.390,189.750 306.801,189.200 306.425 C 187.409 305.200,185.200 303.930,185.200 304.126 M213.500 305.429 C 212.005 306.240,212.096 306.578,213.600 305.800 C 214.260 305.459,214.800 305.094,214.800 304.990 C 214.800 304.732,214.757 304.747,213.500 305.429 M210.600 307.102 C 209.940 307.477,208.806 308.122,208.079 308.537 C 207.352 308.952,206.847 309.380,206.956 309.489 C 207.065 309.598,207.687 309.308,208.339 308.844 C 208.990 308.380,209.676 307.996,209.862 307.991 C 210.217 307.982,212.347 306.417,212.000 306.420 C 211.890 306.421,211.260 306.728,210.600 307.102 M204.352 313.113 C 204.221 313.907,204.279 314.281,204.501 314.059 C 204.703 313.857,204.801 313.267,204.719 312.746 C 204.593 311.945,204.537 312.002,204.352 313.113 M199.289 313.465 C 198.568 313.820,198.043 314.177,198.124 314.257 C 198.204 314.338,198.846 314.116,199.550 313.765 C 200.720 313.181,200.912 313.181,201.800 313.763 C 202.335 314.114,202.913 314.399,203.086 314.397 C 203.259 314.396,202.860 314.037,202.200 313.600 C 200.768 312.652,200.923 312.659,199.289 313.465 " stroke="none" fill="#ec7b8c" fill-rule="evenodd"></path><path id="path4" d="M131.600 114.000 C 129.512 114.439,131.946 114.457,134.400 114.020 L 136.200 113.700 134.600 113.703 C 133.720 113.704,132.370 113.838,131.600 114.000 M142.433 113.751 C 142.525 113.834,143.860 114.002,145.400 114.125 C 147.166 114.265,147.757 114.227,147.000 114.021 C 145.784 113.690,142.127 113.474,142.433 113.751 M254.400 114.016 C 253.773 114.226,254.370 114.266,256.000 114.123 C 257.430 113.997,258.675 113.828,258.767 113.747 C 259.095 113.458,255.380 113.686,254.400 114.016 M265.233 113.751 C 265.325 113.834,266.660 114.002,268.200 114.125 C 269.966 114.265,270.557 114.227,269.800 114.021 C 268.584 113.690,264.927 113.474,265.233 113.751 M126.600 114.800 C 125.581 115.238,126.632 115.238,128.000 114.800 C 128.804 114.543,128.843 114.477,128.200 114.468 C 127.760 114.462,127.040 114.611,126.600 114.800 M151.000 115.009 C 152.100 115.315,153.360 115.560,153.800 115.555 C 154.240 115.550,153.700 115.296,152.600 114.991 C 151.500 114.685,150.240 114.440,149.800 114.445 C 149.360 114.450,149.900 114.704,151.000 115.009 M248.400 115.020 C 247.410 115.304,246.960 115.542,247.400 115.550 C 247.840 115.558,249.100 115.315,250.200 115.009 C 251.300 114.704,251.750 114.465,251.200 114.479 C 250.650 114.493,249.390 114.736,248.400 115.020 M274.000 114.990 C 274.990 115.319,276.160 115.572,276.600 115.553 C 277.482 115.515,275.329 114.852,273.400 114.569 C 272.617 114.454,272.826 114.600,274.000 114.990 M120.478 116.295 C 119.531 116.622,118.827 116.960,118.913 117.047 C 119.000 117.133,120.134 116.854,121.435 116.427 C 122.736 116.000,123.440 115.662,123.000 115.676 C 122.560 115.690,121.425 115.968,120.478 116.295 M244.600 116.000 C 244.308 116.473,244.699 116.473,245.800 116.000 C 246.571 115.669,246.569 115.655,245.724 115.628 C 245.242 115.613,244.736 115.780,244.600 116.000 M157.233 116.544 C 157.325 116.623,157.940 116.808,158.600 116.956 C 159.476 117.152,159.638 117.115,159.200 116.818 C 158.660 116.453,156.832 116.198,157.233 116.544 M239.600 117.571 C 236.706 118.619,231.474 121.141,232.111 121.181 C 232.283 121.191,233.515 120.649,234.851 119.974 C 236.186 119.300,238.836 118.230,240.739 117.597 C 242.643 116.963,243.840 116.453,243.400 116.464 C 242.960 116.475,241.250 116.973,239.600 117.571 M161.814 117.954 C 162.922 118.353,164.242 118.901,164.748 119.172 C 165.254 119.443,165.748 119.586,165.844 119.489 C 166.096 119.237,161.280 117.197,160.474 117.214 C 160.103 117.222,160.706 117.555,161.814 117.954 M285.200 118.075 C 288.874 119.835,290.161 120.373,290.319 120.214 C 290.521 120.013,286.599 118.213,285.140 117.837 C 284.245 117.607,284.248 117.619,285.200 118.075 M112.400 119.400 C 111.410 119.930,110.742 120.372,110.916 120.382 C 111.341 120.406,114.400 118.834,114.400 118.592 C 114.400 118.327,114.417 118.320,112.400 119.400 M168.400 120.820 C 169.787 121.761,170.578 122.035,169.600 121.236 C 169.050 120.786,168.420 120.417,168.200 120.415 C 167.980 120.413,168.070 120.596,168.400 120.820 M107.200 121.941 C 103.340 123.895,96.055 129.589,92.201 133.664 C 89.985 136.007,90.045 135.970,93.001 133.169 C 97.857 128.568,103.503 124.275,107.100 122.447 C 108.035 121.972,108.800 121.497,108.800 121.392 C 108.800 121.132,108.792 121.135,107.200 121.941 M294.600 122.677 C 295.260 123.032,296.390 123.770,297.111 124.317 C 297.832 124.864,298.502 125.232,298.600 125.134 C 298.837 124.897,294.412 121.996,293.844 122.016 C 293.600 122.025,293.940 122.322,294.600 122.677 M173.829 123.989 C 174.693 124.643,175.562 125.183,175.760 125.189 C 175.958 125.195,175.375 124.660,174.463 124.000 C 172.316 122.444,171.775 122.435,173.829 123.989 M227.362 123.662 L 226.600 124.524 227.700 123.816 C 228.834 123.086,229.049 122.800,228.462 122.800 C 228.276 122.800,227.781 123.188,227.362 123.662 M176.871 126.100 C 177.162 126.375,178.132 127.097,179.026 127.703 C 179.921 128.310,182.576 130.758,184.926 133.144 C 187.277 135.529,189.200 137.370,189.200 137.234 C 189.200 136.839,179.946 127.849,178.327 126.672 C 176.799 125.561,175.948 125.226,176.871 126.100 M220.589 128.704 C 216.434 132.193,210.800 138.118,210.800 138.999 C 210.800 139.149,211.497 138.401,212.348 137.336 C 214.017 135.248,219.482 129.908,222.400 127.513 C 223.390 126.701,224.110 126.030,224.000 126.022 C 223.890 126.014,222.355 127.221,220.589 128.704 M301.200 126.925 C 301.200 127.024,301.861 127.609,302.668 128.225 C 303.476 128.841,304.011 129.141,303.856 128.891 C 303.540 128.379,301.200 126.647,301.200 126.925 M304.451 129.500 C 304.479 129.665,305.964 131.146,307.751 132.791 L 311.000 135.782 307.809 132.491 C 304.577 129.157,304.360 128.964,304.451 129.500 M312.762 138.335 C 313.883 139.729,314.800 141.034,314.800 141.235 C 314.800 141.436,314.992 141.600,315.227 141.600 C 315.763 141.600,314.593 139.942,312.405 137.600 C 310.986 136.081,311.042 136.196,312.762 138.335 M88.200 138.294 C 87.320 139.276,86.438 140.377,86.241 140.740 C 86.044 141.103,85.966 141.310,86.068 141.200 C 88.802 138.266,90.089 136.760,89.961 136.648 C 89.872 136.572,89.080 137.312,88.200 138.294 M189.600 138.096 C 189.600 138.221,190.230 139.078,191.000 140.000 C 191.770 140.922,192.393 141.524,192.383 141.338 C 192.365 140.958,189.600 137.738,189.600 138.096 M208.610 141.639 C 207.804 142.761,207.205 143.738,207.278 143.812 C 207.352 143.885,208.095 142.967,208.930 141.772 C 209.765 140.578,210.364 139.600,210.262 139.600 C 210.159 139.600,209.416 140.518,208.610 141.639 M315.614 142.222 C 315.630 142.624,317.595 145.155,317.598 144.778 C 317.599 144.655,317.150 143.945,316.600 143.200 C 316.050 142.455,315.606 142.015,315.614 142.222 M83.877 144.300 C 82.443 146.604,82.339 146.800,82.542 146.800 C 82.646 146.800,83.285 145.900,83.962 144.800 C 84.639 143.700,85.107 142.800,85.001 142.800 C 84.896 142.800,84.390 143.475,83.877 144.300 M194.472 145.000 C 194.766 145.916,197.312 150.022,197.480 149.853 C 197.581 149.752,196.917 148.529,196.004 147.135 C 195.090 145.741,194.401 144.780,194.472 145.000 M318.437 146.400 C 319.596 148.196,319.600 148.201,319.598 147.767 C 319.597 147.565,319.132 146.860,318.565 146.200 L 317.534 145.000 318.437 146.400 M203.428 150.480 C 202.423 152.546,201.602 154.499,201.605 154.818 C 201.608 155.138,202.223 153.996,202.972 152.280 C 203.721 150.565,204.633 148.704,204.999 148.146 C 205.365 147.587,205.572 147.039,205.460 146.926 C 205.347 146.814,204.433 148.413,203.428 150.480 M319.621 148.625 C 319.592 149.207,321.215 152.519,321.425 152.308 C 321.519 152.215,321.155 151.252,320.618 150.169 C 320.081 149.086,319.633 148.391,319.621 148.625 M79.275 153.019 C 78.794 154.011,78.402 155.042,78.404 155.311 C 78.406 155.580,78.860 154.829,79.412 153.642 C 79.965 152.455,80.357 151.424,80.284 151.351 C 80.211 151.277,79.757 152.028,79.275 153.019 M199.227 154.624 C 199.172 155.481,200.257 156.486,201.026 156.290 C 201.741 156.108,201.736 156.089,200.961 156.046 C 200.500 156.021,199.927 155.595,199.688 155.100 C 199.449 154.605,199.242 154.391,199.227 154.624 M76.460 160.867 C 76.427 161.454,76.296 162.264,76.170 162.667 C 75.952 163.360,75.965 163.361,76.395 162.690 C 76.646 162.299,76.777 161.489,76.686 160.890 L 76.520 159.800 76.460 160.867 M324.444 160.800 C 324.439 161.130,324.685 162.300,324.991 163.400 C 325.296 164.500,325.555 165.040,325.567 164.600 C 325.578 164.160,325.333 162.990,325.021 162.000 C 324.709 161.010,324.449 160.470,324.444 160.800 M75.459 165.000 C 75.300 165.880,75.099 167.320,75.013 168.200 C 74.928 169.080,74.938 169.350,75.035 168.800 C 75.133 168.250,75.409 167.155,75.649 166.366 C 75.888 165.578,76.009 164.588,75.917 164.166 C 75.811 163.683,75.642 163.991,75.459 165.000 M325.634 166.000 C 325.646 166.330,325.811 166.960,326.000 167.400 L 326.344 168.200 326.366 167.400 C 326.378 166.960,326.213 166.330,326.000 166.000 C 325.655 165.467,325.615 165.467,325.634 166.000 M326.451 170.600 C 326.448 171.260,326.595 172.520,326.777 173.400 L 327.108 175.000 327.126 173.000 C 327.136 171.900,326.989 170.640,326.800 170.200 C 326.506 169.517,326.455 169.575,326.451 170.600 M74.259 172.100 C 73.929 174.850,73.970 183.372,74.323 185.355 C 74.475 186.210,74.600 183.105,74.600 178.455 C 74.600 169.032,74.609 169.191,74.259 172.100 M326.868 182.800 C 326.826 183.350,326.691 184.520,326.569 185.400 C 326.392 186.679,326.438 186.859,326.796 186.297 C 327.042 185.910,327.176 184.740,327.094 183.697 C 327.012 182.653,326.910 182.250,326.868 182.800 M74.806 188.633 C 74.809 189.275,74.984 190.070,75.195 190.400 C 75.455 190.809,75.499 190.490,75.332 189.400 C 75.029 187.423,74.798 187.086,74.806 188.633 M325.829 190.229 C 325.681 190.815,325.651 191.384,325.761 191.494 C 325.871 191.604,326.081 191.215,326.229 190.629 C 326.376 190.042,326.406 189.473,326.296 189.363 C 326.186 189.253,325.976 189.642,325.829 190.229 M75.664 192.000 C 75.648 192.550,75.901 193.900,76.225 195.000 C 76.632 196.378,76.750 196.565,76.605 195.600 C 76.196 192.875,75.693 190.953,75.664 192.000 M324.829 194.229 C 324.554 195.457,324.406 196.539,324.500 196.633 C 324.594 196.727,324.909 195.812,325.200 194.600 C 325.491 193.388,325.639 192.305,325.529 192.195 C 325.419 192.085,325.103 193.000,324.829 194.229 M78.415 202.000 C 78.405 202.529,80.362 206.105,80.384 205.600 C 80.389 205.490,79.950 204.500,79.409 203.400 C 78.868 202.300,78.420 201.670,78.415 202.000 M320.475 206.219 C 319.270 208.700,319.405 209.047,320.646 206.661 C 321.201 205.594,321.587 204.653,321.503 204.570 C 321.419 204.486,320.957 205.228,320.475 206.219 M82.681 210.900 C 84.456 213.669,87.733 218.403,88.427 219.200 C 89.103 219.976,89.175 220.003,88.749 219.325 C 87.213 216.875,82.715 210.400,82.550 210.400 C 82.446 210.400,82.504 210.625,82.681 210.900 M316.934 212.700 C 316.134 213.965,315.111 215.528,314.661 216.172 C 314.211 216.817,314.040 217.223,314.280 217.074 C 314.779 216.766,318.887 210.400,318.587 210.400 C 318.479 210.400,317.735 211.435,316.934 212.700 M311.807 220.226 C 311.209 221.011,310.782 221.716,310.860 221.793 C 310.937 221.870,311.507 221.228,312.126 220.367 C 313.534 218.408,313.279 218.296,311.807 220.226 M91.764 224.431 C 92.334 225.108,92.800 225.858,92.800 226.097 C 92.800 226.337,92.916 226.417,93.058 226.276 C 93.358 225.975,91.562 223.207,91.064 223.203 C 90.880 223.201,91.195 223.754,91.764 224.431 M307.547 226.628 C 306.806 227.633,305.570 229.238,304.800 230.194 C 304.030 231.151,302.500 233.057,301.400 234.431 C 300.300 235.805,298.857 237.506,298.193 238.212 C 296.332 240.189,295.696 241.113,296.962 240.000 C 298.915 238.283,309.659 224.800,309.074 224.800 C 308.975 224.800,308.287 225.622,307.547 226.628 M97.174 231.500 C 98.137 232.655,99.002 233.600,99.096 233.600 C 99.368 233.600,96.904 230.582,96.126 229.962 C 95.739 229.653,96.210 230.345,97.174 231.500 M99.902 235.000 C 100.359 235.660,101.508 236.920,102.455 237.800 C 103.915 239.157,103.849 239.035,102.019 237.000 C 99.126 233.783,98.933 233.601,99.902 235.000 M104.688 240.600 C 105.658 241.979,122.139 258.400,122.553 258.400 C 122.704 258.400,120.188 255.835,116.963 252.700 C 113.737 249.565,109.465 245.290,107.471 243.200 C 105.476 241.110,104.224 239.940,104.688 240.600 M287.958 248.849 C 283.865 253.002,280.627 256.400,280.762 256.400 C 280.897 256.400,284.424 252.980,288.600 248.800 C 292.776 244.620,296.014 241.222,295.796 241.249 C 295.578 241.276,292.051 244.696,287.958 248.849 M277.381 259.300 L 275.800 261.000 277.500 259.419 C 278.435 258.549,279.200 257.784,279.200 257.719 C 279.200 257.416,278.852 257.719,277.381 259.300 M125.771 261.097 C 126.415 261.809,127.030 262.304,127.138 262.196 C 127.245 262.088,127.258 261.955,127.167 261.900 C 127.075 261.845,126.460 261.351,125.800 260.801 L 124.600 259.803 125.771 261.097 M274.460 261.442 C 274.162 261.778,273.999 262.132,274.095 262.229 C 274.192 262.326,274.598 262.044,274.998 261.602 C 275.397 261.161,275.561 260.807,275.362 260.815 C 275.163 260.824,274.757 261.105,274.460 261.442 M127.600 262.549 C 127.600 262.762,134.201 268.355,135.219 269.005 C 135.559 269.222,135.469 269.069,135.019 268.664 C 131.646 265.631,127.600 262.296,127.600 262.549 M272.000 263.710 C 271.230 264.427,268.819 266.451,266.643 268.207 C 262.725 271.368,260.571 273.229,261.381 272.754 C 262.286 272.224,272.245 264.051,272.962 263.251 C 274.093 261.988,273.594 262.226,272.000 263.710 M137.200 270.565 C 138.186 271.663,140.400 273.410,140.400 273.090 C 140.400 272.999,139.455 272.144,138.300 271.188 C 137.105 270.200,136.631 269.931,137.200 270.565 M258.600 274.513 C 256.191 276.450,255.409 277.202,255.825 277.183 C 256.031 277.173,257.190 276.275,258.400 275.187 C 260.891 272.947,260.999 272.585,258.600 274.513 M143.396 275.563 C 144.154 276.431,145.600 277.414,145.600 277.062 C 145.600 276.970,144.925 276.390,144.100 275.774 C 142.872 274.855,142.744 274.817,143.396 275.563 M148.800 279.366 C 148.800 279.458,149.565 280.109,150.500 280.813 L 152.200 282.094 150.656 280.647 C 149.177 279.261,148.800 279.001,148.800 279.366 M249.938 281.043 C 247.727 282.879,247.802 282.803,248.233 282.784 C 248.620 282.766,252.256 279.600,251.889 279.600 C 251.772 279.600,250.894 280.250,249.938 281.043 M154.897 283.833 C 155.027 284.044,155.991 284.832,157.037 285.584 C 158.084 286.335,158.833 286.778,158.703 286.567 C 158.573 286.356,157.609 285.568,156.563 284.816 C 155.516 284.065,154.767 283.622,154.897 283.833 M244.000 285.316 C 242.790 286.242,241.310 287.253,240.711 287.562 C 240.112 287.871,239.032 288.643,238.311 289.279 C 237.250 290.213,237.391 290.163,239.048 289.017 C 240.174 288.238,241.223 287.600,241.378 287.600 C 241.714 287.600,246.400 284.032,246.400 283.777 C 246.400 283.491,246.303 283.553,244.000 285.316 M159.400 287.072 C 160.383 288.029,166.000 291.762,166.000 291.459 C 166.000 291.355,164.695 290.387,163.100 289.308 C 159.897 287.140,158.771 286.459,159.400 287.072 M166.833 292.125 C 169.261 293.942,171.295 295.277,171.061 294.899 C 170.716 294.340,167.406 292.000,166.961 292.000 C 166.799 292.000,166.742 292.056,166.833 292.125 M231.660 293.603 C 230.747 294.264,230.000 294.903,230.000 295.023 C 230.000 295.211,232.254 293.677,233.380 292.722 C 234.327 291.919,233.156 292.518,231.660 293.603 M226.180 297.131 C 225.288 297.719,223.447 298.909,222.088 299.775 C 220.729 300.642,219.680 301.414,219.757 301.491 C 219.834 301.568,220.955 300.941,222.249 300.098 C 223.542 299.256,225.500 297.991,226.600 297.288 C 227.700 296.585,228.420 296.021,228.200 296.036 C 227.980 296.050,227.071 296.543,226.180 297.131 M174.400 296.901 C 174.889 297.460,180.081 300.852,180.227 300.707 C 180.316 300.617,179.266 299.816,177.894 298.926 C 175.240 297.203,174.074 296.528,174.400 296.901 M182.091 301.824 C 182.510 302.243,188.075 305.600,188.338 305.593 C 188.721 305.582,182.667 301.640,182.233 301.618 C 182.032 301.608,181.967 301.701,182.091 301.824 M217.571 302.391 C 216.786 302.806,215.891 303.450,215.582 303.821 C 215.225 304.251,215.545 304.152,216.461 303.548 C 217.253 303.027,218.238 302.386,218.650 302.124 C 219.805 301.390,219.165 301.548,217.571 302.391 M189.021 306.034 C 189.295 306.477,191.616 307.718,191.809 307.524 C 191.884 307.450,191.235 307.000,190.368 306.525 C 189.500 306.050,188.894 305.829,189.021 306.034 M209.500 307.227 C 208.675 307.663,208.000 308.108,208.000 308.218 C 208.000 308.327,208.720 308.049,209.600 307.600 C 210.480 307.151,211.200 306.697,211.200 306.592 C 211.200 306.330,211.197 306.331,209.500 307.227 M195.700 309.903 C 196.532 310.419,196.816 310.928,196.864 311.993 L 196.928 313.400 197.095 312.025 C 197.258 310.678,196.165 309.214,195.000 309.220 C 194.780 309.221,195.095 309.528,195.700 309.903 M199.689 312.737 C 199.374 312.936,199.704 313.049,200.549 313.030 C 201.303 313.014,201.838 312.865,201.737 312.700 C 201.495 312.306,200.335 312.327,199.689 312.737 " stroke="none" fill="#ec949c" fill-rule="evenodd"></path></g></svg>